<svg width="1080" height="1080" viewBox="0 0 1080 1080" fill="none" xmlns="http://www.w3.org/2000/svg">
<path d="M502.818 188.088C374.891 205.435 274.938 310.921 266.023 441.468C265.643 446.985 270.066 451.637 275.578 451.637H436.937C479.268 451.637 513.565 417.288 513.565 374.932V197.583C513.565 191.823 508.502 187.309 502.8 188.088H502.818Z" fill="#000000"/>
<path d="M813.977 441.468C804.993 311.612 704.832 205.591 577.217 188.122C571.498 187.344 566.435 191.858 566.435 197.617V374.932C566.435 417.306 600.749 451.637 643.063 451.637H804.422C809.951 451.637 814.357 446.968 813.977 441.45V441.468Z" fill="#000000"/>
<path d="M436.954 505.098H280.726C275.664 505.098 271.604 509.145 271.431 514.195C268.303 605.084 433.792 751.802 433.792 751.802C437.455 755.884 443.779 756.074 447.666 752.2L510.766 689.382C512.562 687.584 513.582 685.145 513.582 682.585V581.787C513.582 539.412 479.268 505.081 436.954 505.081V505.098Z" fill="#000000"/>
<path d="M569.234 689.4L632.109 752.459C635.996 756.351 642.338 756.178 646 752.079C646 752.079 811.748 605.084 808.604 514.195C808.431 509.145 804.353 505.098 799.308 505.098H643.063C600.732 505.098 566.435 539.447 566.435 581.804V682.62C566.435 685.162 567.437 687.584 569.234 689.382V689.4Z" fill="#000000"/>
<path d="M610.321 812.043L546.773 748.429C543.041 744.694 536.976 744.694 533.244 748.429L469.696 812.043C465.964 815.778 465.964 821.849 469.696 825.585L533.244 889.198C536.976 892.934 543.041 892.934 546.773 889.198L610.321 825.585C614.053 821.849 614.053 815.778 610.321 812.043Z" fill="#000000"/>
</svg>
