<svg width="20" height="24" viewBox="0 0 20 24" fill="none" xmlns="http://www.w3.org/2000/svg">
<g clip-path="url(#clip0_50_110)">
<path d="M8.76059 0.269646C4.49636 0.847879 1.16459 4.36408 0.867428 8.71565C0.854761 8.89955 1.00219 9.05461 1.18593 9.05461H6.56456C7.9756 9.05461 9.11883 7.90965 9.11883 6.49778V0.586146C9.11883 0.394146 8.95006 0.243679 8.75999 0.269646H8.76059Z" fill="#41AAF5"/>
<path d="M19.1326 8.7156C18.8331 4.38707 15.4944 0.853038 11.2406 0.270738C11.0499 0.244804 10.8812 0.395271 10.8812 0.587238V6.49774C10.8812 7.9102 12.025 9.05457 13.4354 9.05457H18.8141C18.9984 9.05457 19.1452 8.89894 19.1326 8.715V8.7156Z" fill="#41AAF5"/>
<path d="M6.56513 10.8366H1.35753C1.18879 10.8366 1.05346 10.9715 1.04769 11.1399C0.943427 14.1695 6.45973 19.0601 6.45973 19.0601C6.58183 19.1962 6.79263 19.2025 6.92219 19.0734L9.02553 16.9794C9.08539 16.9195 9.11939 16.8382 9.11939 16.7529V13.3929C9.11939 11.9804 7.97559 10.8361 6.56513 10.8361V10.8366Z" fill="#41AAF5"/>
<path d="M10.9745 16.9799L13.0703 19.0819C13.1999 19.2116 13.4113 19.2059 13.5333 19.0692C13.5333 19.0692 19.0583 14.1694 18.9535 11.1398C18.9477 10.9714 18.8118 10.8365 18.6436 10.8365H13.4354C12.0244 10.8365 10.8812 11.9815 10.8812 13.3934V16.7539C10.8812 16.8387 10.9146 16.9194 10.9745 16.9793V16.9799Z" fill="#41AAF5"/>
<path d="M12.344 21.0681L10.2258 18.9476C10.1014 18.8231 9.8992 18.8231 9.7748 18.9476L7.65653 21.0681C7.53213 21.1926 7.53213 21.395 7.65653 21.5195L9.7748 23.6399C9.8992 23.7645 10.1014 23.7645 10.2258 23.6399L12.344 21.5195C12.4684 21.395 12.4684 21.1926 12.344 21.0681Z" fill="#FE7547"/>
</g>
<defs>
<clipPath id="clip0_50_110">
<rect width="20" height="24" fill="white"/>
</clipPath>
</defs>
</svg>
